<svg xmlns="http://www.w3.org/2000/svg" viewBox="0 -45 512 511">
  <path fill="#f55" d="M474.4 122.03C475.93 56.63 424 1.22 358.6.51 314.8.03 276.5 23.6 256 58.82 235.5 23.61 197.2.02 153.4.51 87.99 1.2 36.05 56.64 37.6 122.03c3.45 146.13 178.22 273.23 212.57 296.82a10.27 10.27 0 0011.65 0c34.35-23.59 209.12-150.69 212.57-296.82zm0 0"/>
  <path fill="#f72b2b" d="M474.45 117.66c0 147.94-177.9 277.33-212.63 301.18a10.3 10.3 0 01-11.66.02 696.4 696.4 0 01-46.98-35.59C238.05 359.3 415.7 230 415.7 82.14c0-30.03-11.28-57.43-29.86-78.14 50.9 12.75 88.6 58.78 88.6 113.66zm0 0"/>
  <path fill="#60daff" d="M254.55 332.15c-6.35 0-11.81-4.52-13-10.77L209.3 149.95l-34.34 81.6a13.21 13.21 0 01-23.99.82l-9.18-18.25H13.21a13.22 13.22 0 010-26.42h136.72a13.2 13.2 0 0111.77 7.2l40.26-95.69a13.2 13.2 0 0125.17 2.68l26.61 141.36 11.01-66.14a13.2 13.2 0 0113.04-11.05h43.12c4.47 0 8.64 2.26 11.08 6l20.25 31.08 8.73-10.62a13.22 13.22 0 0110.21-4.82h127.6a13.21 13.21 0 010 26.43H377.44l-16.21 19.72a13.23 13.23 0 01-21.28-1.18l-26.18-40.18h-24.78l-21.4 128.62a13.21 13.21 0 01-12.9 11.04h-.13zm0 0"/>
</svg>